<svg width="30" height="30" viewBox="0 0 30 30" fill="none" xmlns="http://www.w3.org/2000/svg">
<g clip-path="url(#clip0_20_6)">
<path d="M28.5946 2.23096C28.2749 1.96658 27.8322 1.91125 27.451 2.07725L0.0727983 14.0172C-0.621955 14.3184 -1.04004 15.007 -0.996999 15.7633C-0.953961 16.5195 -0.455952 17.1528 0.269543 17.368L7.02033 19.4092C7.60442 19.5875 8.22539 19.2555 8.39754 18.6714C8.56969 18.0873 8.24383 17.4663 7.65975 17.2942L2.0095 15.585L23.3993 6.25807L10.7831 18.8497C10.7769 18.8559 10.7708 18.8681 10.7585 18.8743C10.74 18.8927 10.7277 18.905 10.7093 18.9235C10.697 18.9358 10.6847 18.9542 10.6785 18.9665C10.6724 18.9788 10.6601 18.9911 10.654 19.0034C10.6478 19.0096 10.6478 19.0157 10.6478 19.0157C10.6355 19.028 10.6294 19.0464 10.6171 19.0587C10.6048 19.0772 10.5986 19.0956 10.5863 19.1141C10.5802 19.1264 10.574 19.1448 10.5679 19.1571C10.5556 19.1756 10.5494 19.2002 10.5371 19.2186C10.531 19.2309 10.5248 19.2432 10.5248 19.2555C10.5187 19.2801 10.5064 19.2985 10.5002 19.3231C10.4941 19.3354 10.4941 19.3477 10.4879 19.36C10.4818 19.3846 10.4757 19.4092 10.4695 19.4338C10.4695 19.4461 10.4634 19.4584 10.4634 19.4707C10.4572 19.4953 10.4572 19.5199 10.4572 19.5445C10.4572 19.5568 10.4572 19.5752 10.4572 19.5875C10.4572 19.6121 10.4572 19.6367 10.4572 19.6551C10.4572 19.6674 10.4572 19.6736 10.4572 19.6859L10.7892 25.9878C10.8261 26.6764 11.2688 27.2728 11.9205 27.5065C12.1111 27.5741 12.3017 27.6048 12.4923 27.6048C12.9657 27.6048 13.4268 27.4081 13.7588 27.0392L16.2858 24.2479L21.2658 27.697C21.5733 27.9061 21.9237 28.0168 22.2865 28.0168C22.5078 28.0168 22.7353 27.9737 22.9505 27.8876C23.51 27.6663 23.9157 27.1806 24.0387 26.5965L28.9758 3.3192C29.0618 2.91341 28.9143 2.49533 28.5946 2.23096ZM12.9411 24.6598L12.7935 21.8255L14.4597 22.9813L12.9411 24.6598ZM22.0098 25.5144L13.2854 19.4707L25.9693 6.81141L22.0098 25.5144Z" fill="white"/>
</g>
<defs>
<clipPath id="clip0_20_6">
<rect width="30" height="30" fill="white"/>
</clipPath>
</defs>
</svg>
